# xmcd CD database file
#
# Track frame offsets:
#	150
#	38699
#	68081
#	104927
#	172168
#	275044
#
# Disc length: 4134 seconds
#
# Revision: 0
# Processed by: cddbd v1.5.2PL0 Copyright (c) Steve Scherf et al.
# Submitted via: CDex 1.70beta3
#
DISCID=5b102406
DTITLE=Fate/Kalei liner PRISMA ILLYA 2wei! - プリズマイリヤ2wei ４巻限定版　ドラマCD
DYEAR=2011
DGENRE=ドラマCD
TTITLE0=イリヤ部屋、乗車率500%
TTITLE1=快適な空の旅へようこそ
TTITLE2=完全無欠プライベートビーチ
TTITLE3=はじめてのサバイバル～立志編～
TTITLE4=はじめてのサバイバル～りっしんべん～
TTITLE5=記された音
EXTD=YEAR: 2011
EXTT0=
EXTT1=
EXTT2=
EXTT3=
EXTT4=
EXTT5=
PLAYORDER=
